{"title":"The.People.v.O.J.Simpson.American.Crime.Story.S01.720p.BluRay-OJ","uid":15734944,"size":24516141442,"categoryP":"video","categoryS":"hd___tv_shows","magnet":"?xt=urn:btih:84c27b648571246c4daeb72dead02cea85e15f7b&amp;dn=The.People.v.O.J.Simpson.American.Crime.Story.S01.720p.BluRay-OJ&amp;tr=udp%3A%2F%2Ftracker.leechers-paradise.org%3A6969&amp;tr=udp%3A%2F%2Fzer0day.ch%3A1337&amp;tr=udp%3A%2F%2Fopen.demonii.com%3A1337&amp;tr=udp%3A%2F%2Ftracker.coppersurfer.tk%3A6969&amp;tr=udp%3A%2F%2Fexodus.desync.com%3A6969","seeders":236,"leechers":219,"uploader":"GoodFilms","files":32,"time":1472827943,"description":"The.People.v.O.J.Simpson.American.Crime.Story.S01.720p.BluRay.x264-MAYHEM\r\n \nhttp://www.imdb.com/title/tt2788432/\r\n\r\nVideo\r\nID                                       : 1\r\nFormat                                   : AVC\r\nFormat/Info                              : Advanced Video Codec\r\nFormat profile                           :   \r\nFormat settings, CABAC                   : Yes\r\nFormat settings, ReFrames                : 5 frames\r\nCodec ID                                 : V_MPEG4/ISO/AVC\r\nDuration                                 : 57mn 58s\r\nBit rate                                 : 5 021 Kbps\r\nWidth                                    : 1 280 pixels\r\nHeight                                   : 720 pixels\r\nDisplay aspect ratio                     : 16:9\r\nFrame rate mode                          : Constant\r\nFrame rate                               : 23.976 (24000/1001) fps\r\nColor space                              : YUV\r\nChroma subsampling                       : 4:2:0\r\nBit depth                                : 8 bits\r\nScan type                                : Progressive\r\nBits/(Pixel*Frame)                       : 0.227\r\nStream size                              : 2.03 GiB (77%)\r\nWriting library                          : x264 core 148 r2705 3f5ed56\r\nLanguage                                 : English\r\nDefault                                  : Yes\r\nForced                                   : No\r\n\r\nAudio\r\nID                                       : 2\r\nFormat                                   : DTS\r\nFormat/Info                              : Digital Theater Systems\r\nMode                                     : 16\r\nFormat settings, Endianness              : Big\r\nCodec ID                                 : A_DTS\r\nDuration                                 : 57mn 58s\r\nBit rate mode                            : Constant\r\nBit rate                                 : 1 509 Kbps\r\nChannel(s)                               : 6 channels\r\nChannel positions                        : Front: L C R, Side: L R, LFE\r\nSampling rate                            : 48.0 KHz\r\nFrame rate                               : 93.750 fps (512 spf)\r\nBit depth                                : 24 bits\r\nCompression mode                         : Lossy\r\nStream size                              : 626 MiB (23%)\r\nLanguage                                 : English\r\nDefault                                  : Yes\r\nForced                                   : No\r\n\r\nMenu\r\n00:00:00.000                             : en:00:00:00.000\r\n00:10:54.821                             : en:00:10:54.821\r\n00:19:47.520                             : en:00:19:47.520\r\n00:25:53.719                             : en:00:25:53.719\r\n00:33:16.995                             : en:00:33:16.995\r\n00:44:53.399                             : en:00:44:53.399\r\n00:57:04.046                             : en:00:57:04.046","torrent":{"xt":"urn:btih:84c27b648571246c4daeb72dead02cea85e15f7b","amp;dn":"The.People.v.O.J.Simpson.American.Crime.Story.S01.720p.BluRay-OJ","amp;tr":["udp%3A%2F%2Ftracker.leechers-paradise.org%3A6969","udp%3A%2F%2Fzer0day.ch%3A1337","udp%3A%2F%2Fopen.demonii.com%3A1337","udp%3A%2F%2Ftracker.coppersurfer.tk%3A6969","udp%3A%2F%2Fexodus.desync.com%3A6969"],"infoHash":"84c27b648571246c4daeb72dead02cea85e15f7b","infoHashBuffer":{"type":"Buffer","data":[132,194,123,100,133,113,36,108,77,174,183,45,234,208,44,234,133,225,95,123]},"announce":[],"urlList":[]}}